<?xml version="1.0" encoding="UTF-8"?>
<svg id="Object" xmlns="http://www.w3.org/2000/svg" viewBox="0 0 1603.34 1279.32">
  <defs>
    <style>
      .cls-1 {
        fill: #253740;
      }

      .cls-2 {
        fill: #6fa4bf;
      }

      .cls-3 {
        stroke-width: 5px;
      }

      .cls-3, .cls-4 {
        stroke: #fff;
      }

      .cls-3, .cls-4, .cls-5, .cls-6 {
        fill: none;
        stroke-miterlimit: 10;
      }

      .cls-7 {
        fill: #e6e6e6;
      }

      .cls-8 {
        fill: #cccaed;
      }

      .cls-4 {
        stroke-width: 3px;
      }

      .cls-9 {
        fill: #035384;
      }

      .cls-10 {
        fill: #56a3e8;
      }

      .cls-11 {
        fill: #3799e2;
      }

      .cls-12 {
        fill: #94dbff;
      }

      .cls-13 {
        fill: #2d2d5b;
      }

      .cls-14 {
        fill: #4a6d80;
      }

      .cls-15 {
        fill: #eda126;
      }

      .cls-16 {
        fill: #fff;
      }

      .cls-17 {
        fill: #00609b;
      }

      .cls-18 {
        fill: #7d7dba;
      }

      .cls-5 {
        stroke: #2b6ea0;
      }

      .cls-5, .cls-6 {
        stroke-width: 2px;
      }

      .cls-19 {
        fill: #383868;
      }

      .cls-20 {
        fill: #222249;
      }

      .cls-6 {
        stroke: #b74930;
      }

      .cls-21 {
        fill: #ff8661;
      }

      .cls-22 {
        fill: #ef7356;
      }

      .cls-23 {
        fill: #a9e2ff;
      }

      .cls-24 {
        fill: #2b6ea0;
      }

      .cls-25 {
        fill: #066ab5;
      }

      .cls-26 {
        fill: #ffca4f;
      }

      .cls-27 {
        fill: #ffb636;
      }

      .cls-28 {
        fill: #ffd580;
      }
    </style>
  </defs>
  <g id="Background">
    <path class="cls-23" d="M765.33,1081.92c-17.74,11.87-35.8,24.4-47.55,42.22-11.75,17.82-15.83,42.37-4.39,60.39,17.42,27.43,58.35,25.6,88.75,14.12,31.49-11.89,60.5-30.5,93.21-38.44,32.71-7.94,72.43-1.95,91.07,26.08,12.86,19.33,13.09,45.01,26.05,64.26,23.73,35.26,76.29,32.83,116.98,20.55,70.91-21.39,135.16-60.04,198.58-98.3,59.93-36.16,121.31-73.59,164.02-129.04,42.71-55.45,67.84-161.81,32.19-196.59-17.81-17.37-91.06-4.54-99.24-7.38-26.38-9.16-48.09-34.31-73.69-41.6-54.99-15.65-140.49,40.49-190.32,63.2-137.55,62.67-270.03,136.47-395.67,220.53Z"/>
    <path class="cls-12" d="M247.8,358.14c-21.18,18.7-42.25,39.3-51.82,65.88-9.57,26.58-4.1,60.62,19.56,76.05,18.23,11.9,41.82,10.18,63.49,8.04,47.21-4.68,94.42-9.36,141.64-14.04,19.47-1.93,39.61-3.79,58.22,2.29,18.6,6.08,35.36,22.35,35.56,41.91.24,22.85-20.53,39.74-39.79,52.04-74.72,47.76-161.99,76.3-230.54,132.56-57.9,47.52,60.12,88.7-157.68,206.12-78.06,42.08-126.77,164.85-41.53,189.34,83.19,23.9,319.21-4.51,390.65-53.36,173.2-118.44,355.57-223.45,544.94-313.8,205.19-97.9,426.29-184.09,576.09-355.11,17.33-19.79,33.86-41.14,41.98-66.15,8.13-25.02,6.55-54.53-9.88-75.07-21.59-26.99-60.71-31.03-95.26-30.09-58.51,1.58-116.8,11.3-172.66,28.78-36.55,11.44-222.4,110.52-242.18,77.74-12.21-20.23,132.2-135.21,144.13-155.61,11.93-20.39,28.09-39.02,33.67-61.98C1294.41-42.89,1013.53.34,934.84,23.67c-156.98,46.55-314,101-458.73,178.33-81.49,43.54-158.97,94.92-228.31,156.14Z"/>
    <g>
      <path class="cls-12" d="M1185.42,185.97c0,2.74.35,5.4,1.01,7.93h231.64c.4-2.01.61-4.08.61-6.21,0-17.36-14.07-31.43-31.43-31.43-.18,0-.37,0-.55,0,.37-2.77.55-5.59.55-8.46,0-35.3-28.61-63.92-63.92-63.92-25.9,0-48.21,15.41-58.24,37.57-1.86-.23-3.75-.35-5.67-.35-21.06,0-38.81,14.16-44.25,33.48-16.58.87-29.76,14.59-29.76,31.39Z"/>
      <ellipse class="cls-2" cx="1302.55" cy="193.9" rx="116.13" ry="13.63"/>
    </g>
    <g>
      <path class="cls-23" d="M171.98,714.5c0,3.63.47,7.15,1.34,10.5h306.91c.53-2.66.81-5.41.81-8.23,0-23-18.64-41.64-41.64-41.64-.24,0-.49,0-.74.01.49-3.67.74-7.41.74-11.21,0-46.77-37.91-84.68-84.68-84.68-34.32,0-63.87,20.42-77.17,49.77-2.46-.31-4.97-.47-7.51-.47-27.9,0-51.41,18.76-58.62,44.35-21.97,1.15-39.43,19.33-39.43,41.58Z"/>
      <ellipse class="cls-2" cx="327.18" cy="725.01" rx="153.86" ry="18.06"/>
    </g>
    <g>
      <path class="cls-12" d="M589.66,140.31c0,3.3-.49,6.51-1.4,9.56h-321.13c-.56-2.42-.85-4.92-.85-7.48,0-20.92,19.51-37.89,43.57-37.89.25,0,.51,0,.77,0-.51-3.33-.77-6.74-.77-10.2,0-42.55,39.67-77.05,88.61-77.05,35.91,0,66.83,18.58,80.74,45.29,2.57-.28,5.2-.42,7.86-.42,29.19,0,53.8,17.07,61.34,40.35,22.99,1.05,41.26,17.58,41.26,37.83Z"/>
      <ellipse class="cls-2" cx="428.39" cy="149.87" rx="161.26" ry="11.93"/>
    </g>
  </g>
  <g id="Plane">
    <polygon class="cls-1" points="503.57 1198.23 793.31 1045.45 491.04 996.4 503.57 1198.23"/>
    <polygon class="cls-18" points="491.04 996.4 503.57 1198.23 475.95 987.38 491.04 996.4"/>
    <polygon class="cls-2" points="1591.04 654.49 1223.77 764.13 939.61 848.96 475.95 987.38 346.08 915.89 1591.04 654.49"/>
    <polygon class="cls-2" points="1591.04 654.49 686.2 1234.39 491.04 996.4 910.93 865.89 1223.68 768.67 1591.04 654.49"/>
    <path class="cls-2" d="M1223.77,764.13c0,1.54-.02,3.05-.09,4.54-.55,12.49-3.78,23.11-11.65,28.59-28.47,19.8-526.4,269.05-530.46,271.54-4.05,2.49-20.24-6.27-20.24-6.27l-35.2,18.65-18.25,35.16s-15.54-6.16-27.4-10.87l-24.61-30.02,355.06-209.56,28.68-16.93,284.16-84.83Z"/>
    <polygon class="cls-14" points="1591.04 654.49 491.04 996.4 475.95 987.38 1591.04 654.49"/>
    <path class="cls-2" d="M1223.77,764.13l-284.16,84.83,107.04-63.17,174.38-53.61c1.06,6.98,2.71,25.32,2.74,31.95Z"/>
    <path class="cls-1" d="M580.48,1105.47s85.47,81.18,106.55,82.7c21.08,1.52,904.01-533.68,904.01-533.68l-904.84,579.9-105.72-128.92Z"/>
    <path class="cls-8" d="M463.95,904.2c-9.7,1.92-19.85,4.05-27.46,10.37-7.61,6.32-11.52,18.28-5.79,26.35,7.89-.22,14.67,5.1,21.36,9.3,6.68,4.2,15.52,7.43,22.17,3.19,5.89-3.75,7.33-12.12,5.16-18.76-2.17-6.64-7.09-11.96-11.87-17.04,13.05-2.33,106.17-11.63,101.15-28.28-3.48-11.55-90.58,12.09-104.71,14.88Z"/>
  </g>
  <g id="Man">
    <g>
      <g>
        <path class="cls-21" d="M796.1,824.59c-21.53,31.41-72.04,28.42-72.04,28.42.44-2.07.64-4.84.66-8.03.11-16.87-4.77-45.58-4.77-45.58,0,0,0,0,.02-.01.59-.23,14.98-5.92,32.89-11.23,1.22-.36,2.45-.71,3.7-1.07.68-.2,1.38-.39,2.07-.58.49-.14.99-.27,1.49-.41.82-.22,1.64-.44,2.46-.66,4.94-1.3,9.95-2.5,14.85-3.5.82-.16,1.63-.33,2.44-.48.05-.01.09-.01.14-.03,2.03-.38,4.03-.73,5.99-1.03,2.01-.32,3.98-.58,5.9-.79l1.65,17.65,2.55,27.33Z"/>
        <path class="cls-13" d="M801.4,881.41l-139.94,71.49c-3.3-33.97,56.43-71.07,62.6-99.89,0,0,50.51,2.99,72.04-28.42l5.3,56.82Z"/>
        <path class="cls-22" d="M796.1,824.59c-21.53,31.41-72.04,28.42-72.04,28.42.44-2.07.64-4.84.66-8.03,26.88,3.15,52.37-16.36,55.89-22.9,3.55-6.59-1.01-20.28-4.56-26.87-3.51-6.51-54.85,3.93-56.08,4.18.59-.23,14.98-5.92,32.89-11.23,1.22-.36,2.45-.71,3.7-1.07.68-.2,1.38-.39,2.07-.58.49-.14.99-.27,1.49-.41.82-.22,1.64-.44,2.46-.66,4.94-1.3,9.95-2.5,14.85-3.5.82-.16,1.63-.33,2.44-.48.05-.01.09-.01.14-.03,2.03-.38,4.03-.73,5.99-1.03,2.01-.32,3.98-.58,5.9-.79l1.65,17.65,2.55,27.33Z"/>
      </g>
      <g>
        <path class="cls-25" d="M1083.58,667.57s-7.84,39.06-37.05,72.61c-18.06,20.75-44.28,39.39-81.86,45.4-96.91,15.47-167.24-141.27-169.3-145.92,0-.02-.02-.04-.03-.06,0-.01,0-.02,0-.02l12,73.58v.02s11.82,72.4,11.82,72.4c-3.37-6.27-14.02-7.42-27.25-5.97-1.92.21-3.89.47-5.9.79-1.97.3-3.98.64-5.99,1.03-.05.02-.09.02-.14.03-.81.15-1.62.32-2.44.48-4.94,1-9.95,2.2-14.85,3.5-.82.22-1.64.44-2.46.66-.5.14-1,.27-1.49.41-.69.19-1.39.38-2.07.58-1.25.35-2.48.7-3.7,1.07-19.73,5.74-36.11,12.12-36.11,12.12l-29.72-214.22c-5.72-41.3,18.55-80.88,57.96-94.49,9.32-3.22,18.94-4.78,28.47-4.78.42,0,.85,0,1.27.02,23.32.33,46.03,10.02,62.53,27.68l19.21,20.91,85.96,93.56,32.23,8.82,108.92,29.79Z"/>
        <path class="cls-17" d="M1046.53,740.18c-18.06,20.75-44.28,39.39-81.86,45.4-96.91,15.47-167.24-141.27-169.3-145.92,2.41,4.58,122.57,213.43,263.97,32.08l-12.81,68.44Z"/>
        <path class="cls-4" d="M796.1,757.05s-24.61-128.94-14.47-138.18,96.79,147.48,201.01,146.7"/>
        <path class="cls-17" d="M819.15,785.58c-3.37-6.27-14.02-7.42-27.25-5.97-1.92.21-3.89.47-5.9.79-1.97.3-3.98.64-5.99,1.03-.05.02-.09.02-.14.03-.81.15-1.62.32-2.44.48-4.94,1-9.95,2.2-14.85,3.5-.82.22-1.64.44-2.46.66-.5.14-1,.27-1.49.41-.69.19-1.39.38-2.07.58-1.25.35-2.48.7-3.7,1.07-19.73,5.74-36.11,12.12-36.11,12.12l-29.72-214.22s40.04,182.78,44.33,187.52c4.3,4.73,62.09-10.82,70.04-9.47,7.95,1.35,5.93-50.95,5.93-50.95v.02s11.82,72.4,11.82,72.4Z"/>
        <path class="cls-4" d="M713.12,774.1s51.38-21.66,101.52-16.16"/>
        <path class="cls-17" d="M856.47,535.4s-35.29,27.08-63.18,21.76c-27.89-5.33-31.92-61.72-31.92-61.72l13.36-8.63c23.32.33,46.03,10.02,62.53,27.68l19.21,20.91Z"/>
        <path class="cls-9" d="M793.55,797.26l-1.65-17.65c13.23-1.45,23.88-.3,27.25,5.97,0,0,1.53,7.65-25.6,11.68Z"/>
      </g>
      <path class="cls-17" d="M1083.58,667.57l-24.24,4.17-2.53,5.16c-54.74,6.48-106.17,13.52-106.17,13.52l24.02-52.64,108.92,29.79Z"/>
    </g>
    <g>
      <path class="cls-21" d="M901.55,485.72s-1.52,1.84-4.28,4.87c-2.11,2.32-4.94,5.33-8.37,8.75-19.69,19.65-59.26,52.91-96.12,46.41-38.02-6.71-38.59-93.69-31.45-170.37,1.16-12.34,2.51-24.41,3.93-35.83,1.2-9.56,2.45-18.67,3.67-27.11.52-3.55,1.03-6.98,1.53-10.28,4.11-26.86,7.62-44.73,7.62-44.73-1.77-15.85,3.19-38.29,5.01-45.8.4-1.63.65-2.56.65-2.56l-5.32-38.4c-.04-.27-.06-.54-.06-.8,0-2.76,2-5.19,4.8-5.66,2.92-.49,5.73,1.31,6.5,4.17l10.31,38.15,2.78-47.28c.07-1.24.62-2.35,1.47-3.15.85-.79,1.99-1.28,3.23-1.28,2.39,0,4.4,1.77,4.68,4.14l5.58,45.55,8.58-41.56c.5-2.41,2.62-4.05,4.97-4.05.38,0,.76.04,1.15.13,2.32.54,3.95,2.61,3.93,4.98l-.37,45.57s26.28-10.65,21.21,7.6c-5.07,18.26-20.79,44.2-20.79,44.2l-1.98,37-2.54,47.49-3.22,60.32-1.46,27.27-.44,8.17,14.56-15.8,7.25-7.86,52.99,67.75Z"/>
      <path class="cls-22" d="M834.41,298.38l-2.54,47.49-3.22,60.32c-25.16-39.05-48.24-75.12-59.72-93.75.52-3.55,1.03-6.98,1.53-10.28,4.11-26.86,7.62-44.73,7.62-44.73-1.77-15.85,3.19-38.29,5.01-45.8l11.66,26.51,9.87-13.3c1.87-2.52,5.16-3.54,8.13-2.51,2.94,1.01,4.83,3.78,4.83,6.79,0,.55-.06,1.1-.19,1.66l-8.78,37.15,25.8,30.45Z"/>
      <path class="cls-22" d="M897.27,490.59c-14.18,15.59-61.2,62.79-104.49,55.16-38.02-6.71-38.59-93.69-31.45-170.37h0s2.03,79.47,8.12,105.99c6.08,26.52,8.91,63.24,46.14,52.54,32.96-9.46,56.13-18.92,46.81-60.84-5.12-23.05,13.78-5.92,34.86,17.52Z"/>
      <line class="cls-6" x1="826.75" y1="441.63" x2="815.6" y2="457.52"/>
      <path class="cls-22" d="M831.87,345.87l-4.68,87.59-61.92-93.89v-.02c1.69-13.58,3.5-26.26,5.19-37.39l61.41,43.71Z"/>
    </g>
    <g>
      <path class="cls-10" d="M1210.25,645.8l-259.61,44.62-2.26-16.89-17.42-130.42-1.19-8.96-6.85-51.28-12.84,14.2-61.52-79.1s19.04-21.65,34.37-35.27c5.3-4.72,10.16-8.47,13.63-10.03,9.73-4.37,38.97-13.99,54.61-19.04h0c6.1-1.98,10.13-3.25,10.13-3.25l99.96-10.81s5.55.53,14.11,1.57c24.87,3.01,75.15,10.33,88.23,21.39,10.82,9.16,12.93,43.68,13.58,74.7.41,19.37.25,37.37,1.29,46.99,2.71,25.02,31.78,161.58,31.78,161.58Z"/>
      <path class="cls-11" d="M970.37,454.48l-40.6,8.11-46.84-79.89c5.3-4.72,10.16-8.47,13.63-10.03l73.81,81.81Z"/>
      <path class="cls-11" d="M1067.36,495.04s-46.92,28.4-62.12,34.99c-13.63,5.91-44.02,22.84-74.28,13.08l-1.19-8.96,124.9-61.08,12.69,21.97Z"/>
      <path class="cls-11" d="M1210.25,645.8l-259.61,44.62-2.26-16.89c18.2,16.74,247.5-32.97,246.99-41.59-.5-8.62-23.83-129.8-26.36-141.2-2.54-11.4,0-24.6-4.73-28.15-4.66-3.5-84.29,35.01-86.68,36.16l99.58-61.52c.41,19.37.25,37.37,1.29,46.99,2.71,25.02,31.78,161.58,31.78,161.58Z"/>
      <path class="cls-11" d="M1177.18,437.23l-22.9,14.88-78.91,48-53.92-98.4c26.19,10.11,67.11,72.37,73.87,71.36,6.76-1.01,56.11-30.09,65.58-39.61,9.46-9.52,9.46-35.1,2.7-70.93,10.82,9.16,12.93,43.68,13.58,74.7Z"/>
      <line class="cls-5" x1="1103.43" y1="357.8" x2="1021.45" y2="401.71"/>
      <line class="cls-5" x1="1164.28" y1="446.03" x2="1075.37" y2="500.11"/>
      <g>
        <path class="cls-4" d="M956.28,654.92c4.05-.88,5.77,7.05,9.83,6.17,4.06-.88,2.34-8.81,6.39-9.69,4.06-.88,5.77,7.05,9.83,6.17,4.06-.88,2.34-8.81,6.4-9.69s5.78,7.05,9.83,6.17"/>
        <path class="cls-4" d="M1098.68,605.96c4.05-.88,5.77,7.05,9.83,6.17,4.06-.88,2.34-8.81,6.39-9.69,4.06-.88,5.77,7.05,9.83,6.17,4.06-.88,2.34-8.81,6.4-9.69,4.06-.88,5.78,7.05,9.83,6.17"/>
        <path class="cls-4" d="M1082.29,502.54c4.05-.88,5.77,7.05,9.83,6.17,4.06-.88,2.34-8.81,6.39-9.69,4.06-.88,5.77,7.05,9.83,6.17,4.06-.88,2.34-8.81,6.4-9.69,4.06-.88,5.78,7.05,9.83,6.17"/>
        <path class="cls-4" d="M940.36,411.39c4.05-.88,5.77,7.05,9.83,6.17,4.06-.88,2.34-8.81,6.39-9.69,4.06-.88,5.77,7.05,9.83,6.17,4.06-.88,2.34-8.81,6.4-9.69,4.06-.88,5.78,7.05,9.83,6.17"/>
        <path class="cls-4" d="M882.93,389.29c4.05-.88,5.77,7.05,9.83,6.17,4.06-.88,2.34-8.81,6.39-9.69,4.05-.88,5.77,7.05,9.83,6.17,4.06-.88,2.34-8.81,6.4-9.69s5.78,7.05,9.83,6.17"/>
        <path class="cls-4" d="M1041.3,557.59c4.05-.88,5.77,7.05,9.83,6.17,4.06-.88,2.34-8.81,6.39-9.69,4.06-.88,5.77,7.05,9.83,6.17,4.06-.88,2.34-8.81,6.4-9.69,4.06-.88,5.78,7.05,9.83,6.17"/>
        <path class="cls-4" d="M974.67,529.16c4.05-.88,5.77,7.05,9.83,6.17,4.06-.88,2.34-8.81,6.39-9.69,4.06-.88,5.77,7.05,9.83,6.17,4.06-.88,2.34-8.81,6.4-9.69s5.78,7.05,9.83,6.17"/>
        <path class="cls-4" d="M1131.46,557.59c4.05-.88,5.77,7.05,9.83,6.17,4.06-.88,2.34-8.81,6.39-9.69,4.06-.88,5.77,7.05,9.83,6.17,4.06-.88,2.34-8.81,6.4-9.69,4.06-.88,5.78,7.05,9.83,6.17"/>
        <path class="cls-4" d="M1164.28,625.97c4.05-.88,5.77,7.05,9.83,6.17,4.06-.88,2.34-8.81,6.39-9.69,4.06-.88,5.77,7.05,9.83,6.17,4.06-.88,2.34-8.81,6.4-9.69s5.78,7.05,9.83,6.17"/>
        <path class="cls-4" d="M1054.23,661.59c4.05-.88,5.77,7.05,9.83,6.17,4.06-.88,2.34-8.81,6.39-9.69,4.06-.88,5.77,7.05,9.83,6.17,4.06-.88,2.34-8.81,6.4-9.69,4.06-.88,5.78,7.05,9.83,6.17"/>
        <path class="cls-4" d="M1005.24,612.63c4.05-.88,5.77,7.05,9.83,6.17,4.06-.88,2.34-8.81,6.39-9.69,4.06-.88,5.77,7.05,9.83,6.17,4.06-.88,2.34-8.81,6.4-9.69,4.06-.88,5.78,7.05,9.83,6.17"/>
        <path class="cls-4" d="M940.99,586.36c4.05-.88,5.77,7.05,9.83,6.17,4.06-.88,2.34-8.81,6.39-9.69,4.06-.88,5.77,7.05,9.83,6.17,4.06-.88,2.34-8.81,6.4-9.69,4.06-.88,5.78,7.05,9.83,6.17"/>
        <path class="cls-4" d="M1124.57,442.06c4.05-.88,5.77,7.05,9.83,6.17,4.06-.88,2.34-8.81,6.39-9.69,4.06-.88,5.77,7.05,9.83,6.17,4.06-.88,2.34-8.81,6.4-9.69s5.78,7.05,9.83,6.17"/>
        <path class="cls-4" d="M1051.44,418.06c4.05-.88,5.77,7.05,9.83,6.17,4.06-.88,2.34-8.81,6.39-9.69,4.06-.88,5.77,7.05,9.83,6.17,4.06-.88,2.34-8.81,6.4-9.69,4.06-.88,5.78,7.05,9.83,6.17"/>
        <path class="cls-4" d="M1115.24,375.81c4.05-.88,5.77,7.05,9.83,6.17,4.06-.88,2.34-8.81,6.39-9.69,4.06-.88,5.77,7.05,9.83,6.17,4.06-.88,2.34-8.81,6.4-9.69,4.06-.88,5.78,7.05,9.83,6.17"/>
      </g>
      <path class="cls-24" d="M1075.37,500.11c-9.12-.67-16.03-12.12-16.03-12.12l13.24-6.62c1.9,6.45,2.94,12.77,2.79,18.74Z"/>
    </g>
    <g>
      <path class="cls-26" d="M915.34,192.2l2.31,14.47c.34,2.1-.95,4.12-2.99,4.72l-392.85,114.52-19.83-124.25,19.32-.61,383.24-12.19,6.49-.2c2.14-.07,3.98,1.45,4.31,3.55Z"/>
      <path class="cls-27" d="M915.34,192.2l2.31,14.47c.34,2.1-.95,4.12-2.99,4.72l-392.85,114.52-19.83-124.25,19.32-.61s30.13,14.5,34.69,52.8c4.57,38.29-1.77,46.49.35,50.26,2.11,3.76,348.56-93.63,351.01-97.6,2.44-3.98,6.69-9.55-2.82-17.66l6.49-.2c2.14-.07,3.98,1.45,4.31,3.55Z"/>
      <ellipse class="cls-15" cx="511.89" cy="263.78" rx="39.55" ry="62.91" transform="translate(-35.17 83.96) rotate(-9.07)"/>
      <path class="cls-28" d="M572.61,211.02c-4.34.7-9.31,1.99-11.14,5.99-1.99,4.35,1.2,9.66,5.53,11.69,4.33,2.04,9.35,1.69,14.12,1.3,41.12-3.33,82.24-6.66,123.36-10,18.3-1.48,37.71-1.31,55.75-4.77,5.14-.99,11.43-3.85,7.43-10.13-3.7-5.81-13.55-1.58-19.09-.9-37.42,4.61-75.2,2.22-112.79,2.42-21.12.11-42.3,1.01-63.17,4.4Z"/>
      <ellipse class="cls-16" cx="513.03" cy="263.6" rx="36.39" ry="57.88" transform="translate(-35.13 84.14) rotate(-9.07)"/>
      <path class="cls-7" d="M525.86,319.85c-1.2.39-2.44.7-3.7.9-19.85,3.17-40.02-19.85-45.06-51.42-5.04-31.57,6.97-59.72,26.81-62.89,1.26-.2,2.54-.29,3.8-.29-17.6,5.87-27.82,32.43-23.1,61.98,4.72,29.56,22.7,51.62,41.24,51.72Z"/>
      <path class="cls-3" d="M611.05,198.19c6.48,14.35,11.52,31.07,14.41,49.19,2.68,16.79,3.23,33,1.96,47.74"/>
      <path class="cls-3" d="M738.26,194.14c3.6,10.5,6.46,21.89,8.37,33.9,1.73,10.84,2.57,21.44,2.61,31.56"/>
      <path class="cls-3" d="M863.98,190.14c1.52,5.99,2.8,12.19,3.82,18.57.84,5.29,1.48,10.52,1.91,15.66"/>
    </g>
    <g>
      <path class="cls-21" d="M1072.58,481.37l-13.24,6.62-78.26,39.07c-35.99,17.97-79.73,6.06-101.62-27.69-13.12-20.23-28.37-43.76-43.7-67.49,0,0,0,0,0,0h0c-38.83-60.11-78.18-121.46-84.88-133.57-8.6-15.52-21.97-58.82-21.97-58.82l-20.8-47.49c-.3-.68-.44-1.38-.44-2.08,0-1.79.94-3.52,2.57-4.48,2.34-1.36,5.32-.7,6.87,1.51l26.67,38.08-23.85-49.82c-.31-.63-.45-1.31-.45-1.97,0-1.59.84-3.14,2.31-3.97,2.1-1.19,4.76-.54,6.08,1.48l29.77,45.76-13.38-47.26c-.12-.42-.17-.84-.17-1.26,0-1.89,1.16-3.65,3.01-4.35,2.31-.87,4.89.21,5.89,2.47l30.34,68.99,9.87-13.3c1.87-2.52,5.16-3.54,8.13-2.51,2.94,1.01,4.83,3.78,4.83,6.79,0,.55-.06,1.1-.19,1.66l-8.78,37.15,149.74,176.74,74.53-39.92s40.07,41.94,51.13,79.66Z"/>
      <line class="cls-6" x1="946.92" y1="441.63" x2="962.13" y2="462.59"/>
      <path class="cls-6" d="M797.18,264.89s-14.88,11.78-22.31,14.49"/>
      <path class="cls-22" d="M1072.58,481.37l-13.24,6.62-78.26,39.07c-35.99,17.97-79.73,6.06-101.62-27.69-13.12-20.23-28.37-43.76-43.7-67.49.85,1.16,54.74,84.77,94.18,92.23,47.04,8.9,124.73-42.74,124.73-51.04,0-13-33.22-71.36-33.22-71.36,0,0,40.07,41.94,51.13,79.66Z"/>
    </g>
    <g>
      <g>
        <path class="cls-25" d="M1198.48,787.1c-30.49,41.57-520.29,268.73-520.29,268.73,0,0-15.21-58.82-61.86-88.23l418.82-246.42,21.66-44.28,2.53-5.16,139.14-23.92s30.49,97.7,0,139.28Z"/>
        <path class="cls-9" d="M678.19,1055.83c-8.03-3.81-15.03-7.96-21.12-12.32-24.73-17.69-34.59-38.82-38.44-54.29-3.18-12.72-2.3-21.62-2.3-21.62,5.47,3.45,10.5,7.3,15.13,11.42,19.76,17.54,32.12,39.85,39.13,55.9,5.37,12.29,7.6,20.91,7.6,20.91Z"/>
        <path class="cls-17" d="M1198.48,787.1c-30.49,41.57-520.29,268.73-520.29,268.73,0,0-15.21-58.82-61.86-88.23,52.73,24.33,67.95,64.91,79.34,61.86,11.39-3.04,463.2-231.21,489.75-261.63,26.55-30.42,5.9-91.27,0-100-3.1-4.59-67.89,1.9-128.61,9.07l2.53-5.16,139.14-23.92s30.49,97.7,0,139.28Z"/>
        <path class="cls-4" d="M641.31,952.9c10.11,6.82,25.42,18.95,38.9,38.37,14.4,20.74,20.37,40.66,23.05,52.86"/>
        <path class="cls-4" d="M692.11,1011.72s435.37-218.53,453.6-260.11c18.23-41.58,6.89-95.9,6.89-95.9"/>
      </g>
      <g>
        <path class="cls-21" d="M670.66,1039.14l-13.83,8.07-37.01,21.59c-45.62-8.72-51.94-42.99-52.12-44.06,0-.01,0-.02,0-.03,12.22-4.61,37.3-22.03,52.77-33.21,3.61-2.61,6.7-4.88,8.98-6.57,2.67-1.97,4.22-3.14,4.22-3.14,19.09,18.27,30.6,41.03,37,57.33Z"/>
        <path class="cls-13" d="M619.82,1068.8l-24.54,31.55-148.52-57.87c11.2-27.99,92.34-6.96,120.93-17.77,0,0,5.78,35.23,52.13,44.09Z"/>
        <path class="cls-22" d="M670.66,1039.14l-13.83,8.07-37.01,21.59c-45.62-8.72-51.94-42.99-52.12-44.06,9.75,24.68,40.25,31.26,47.95,33.24,7.7,1.98,33.97-12.59,37.73-22.59,3.76-10.01-7.35-20.57-23.94-50.45,2.67-1.97,4.22-3.14,4.22-3.14,19.09,18.27,30.6,41.03,37,57.33Z"/>
      </g>
    </g>
    <g>
      <g>
        <path class="cls-13" d="M910.65,135.22s-7.49,42.41,7.29,47.48c14.79,5.07,28.98-50.03,28.98-50.03l-36.27,2.55Z"/>
        <path class="cls-21" d="M1051.37,267.21l9.89,72.36s5.55.53,14.11,1.57c0,0,0,11.5-10.84,22.33-7.56,7.55-20.4,14.79-42.19,17.57l-3.84.43c-.17.02-.34.03-.51.05-28.84,2.75-45.34-3.35-54.73-10.54-10.46-8-12.09-17.35-12.09-17.35h0c6.1-1.98,10.13-3.25,10.13-3.25l-4.57-48.02s-25.69,4.06-33.13-10.81c-6.67-13.34-5.73-125.57-5.46-148.65.03-2.66.05-4.14.05-4.14l117.63-6.09v62.88s22.99-20.96,44.08-3.04c24.79,21.06,12.04,79.43-28.53,74.7Z"/>
        <ellipse cx="935.39" cy="190.98" rx="5.45" ry="7.95"/>
        <path class="cls-13" d="M922.33,170.75c-.67,0-1.34-.27-1.84-.8-.94-1.01-.87-2.6.14-3.53,2.08-1.92,6.53-5.27,13-6.22,5.55-.81,10.13.48,13,1.69,1.27.54,1.86,2.01,1.32,3.28-.54,1.27-2.01,1.86-3.28,1.32-2.28-.97-5.92-1.99-10.33-1.35-5.14.75-8.67,3.42-10.33,4.94-.48.44-1.09.66-1.7.66Z"/>
        <path d="M989.77,199.42c-.55,0-1.08-.3-1.34-.83-3.52-7.03-16.8-5.04-16.93-5.02-.55.09-1.11-.14-1.44-.59-.33-.45-.39-1.05-.14-1.55.07-.14,6.89-13.59,23.96-6.82.77.31,1.15,1.18.84,1.95-.31.77-1.18,1.15-1.95.84-10.1-4.01-15.83,0-18.43,2.91,4.82-.19,13.53.44,16.78,6.94.37.74.07,1.64-.67,2.01-.22.11-.44.16-.67.16Z"/>
        <path class="cls-13" d="M994.59,177.6c-.74,0-1.48-.33-1.97-.96-1.33-1.7-4.28-4.73-9.06-5.97-5.8-1.51-10.59.58-12.38,1.55-1.21.66-2.73.21-3.39-1.01-.66-1.21-.21-2.73,1.01-3.39,2.31-1.25,8.49-3.95,16.02-2,6.2,1.61,10.01,5.53,11.73,7.72.85,1.09.66,2.66-.42,3.51-.46.36-1,.53-1.54.53Z"/>
        <path class="cls-6" d="M954.27,204.51v29.15s-10.9-4.31-10.9,5.32,10.9,5.83,10.9,5.83"/>
        <path class="cls-6" d="M956.05,267.89c1.53.44,10.21,2.78,18.76-2.28,6.48-3.84,9.1-9.69,9.89-11.66"/>
        <path class="cls-22" d="M956.72,302.37s53.32-6.34,66.51-10.39-20.44,16.72-65.11,25.09l-1.4-14.7Z"/>
        <path class="cls-6" d="M1043.26,209.32c6.19-5.75,15.12-7.44,22.82-4.31,7.13,2.9,12.17,9.51,13.18,17.24"/>
        <line class="cls-6" x1="1061.26" y1="203.7" x2="1048.08" y2="249.13"/>
        <path class="cls-6" d="M1051.37,267.21s-9.13-.84-14.45-4.65"/>
        <path class="cls-22" d="M1035.82,132.67v62.88c-15.63,6.42-17.15-33.89-17.15-33.89-58.82,7.35-100.53-18.76-100.53-18.76.03-2.66.05-4.14.05-4.14l117.63-6.09Z"/>
      </g>
      <g>
        <path class="cls-13" d="M1081.8,129.46c-.07,1.5-.23,3.68-.46,6.33-1.08,12.64-3.64,35.96-4.9,47.24-.45,3.96-.73,6.43-.73,6.43-2.68-1.35-11.58-5.43-22.84-3.06-8.98,1.89-14.74,6.89-17.05,9.15-12.84,4.9-12.33-40.23-12.33-40.23-76.06,12.17-145.54-24.85-130.31-59.83,7.65-17.57,27.03-11.22,47.41-2.64,16.08,6.76,32.79,14.92,44.87,13.8,27.38-2.54,61.35-22.31,64.39,5.07,20.28-14.71,32.45,6.59,31.95,17.74Z"/>
        <path class="cls-20" d="M1076.44,183.03c-.45,3.96-.73,6.43-.73,6.43-2.68-1.35-11.58-5.43-22.84-3.06-8.98,1.89-14.74,6.89-17.05,9.15-12.84,4.9-12.33-40.23-12.33-40.23-76.06,12.17-145.54-24.85-130.31-59.83,8.11,37.18,54.76,60.51,129.8,51.72,0,0,2.7,31.77,17.24,31.1,14.53-.68,23.09-5.76,36.22,4.72Z"/>
        <path class="cls-19" d="M1081.8,129.46c-.07,1.5-.23,3.68-.46,6.33-15.46-.5-32.87-2.55-51.07-6.26-40.45-8.25-74.12-22.57-89.68-36.68,16.08,6.76,32.79,14.92,44.87,13.8,27.38-2.54,61.35-22.31,64.39,5.07,20.28-14.71,32.45,6.59,31.95,17.74Z"/>
      </g>
    </g>
  </g>
</svg>