<?xml version="1.0" encoding="UTF-8"?>
<svg id="Layer_1" data-name="Layer 1" xmlns="http://www.w3.org/2000/svg" xmlns:xlink="http://www.w3.org/1999/xlink" viewBox="0 0 2834.65 2096.55">
  <defs>
    <style>
      .cls-1 {
        fill: #5064be;
      }

      .cls-2 {
        fill: none;
      }

      .cls-3 {
        fill: #9babfe;
      }

      .cls-4 {
        fill: #a6beff;
      }

      .cls-5 {
        fill: #6e82e6;
      }

      .cls-6 {
        fill: #ef7773;
      }

      .cls-7 {
        fill: #b4c0ff;
      }

      .cls-8 {
        fill: url(#linear-gradient);
      }

      .cls-9 {
        fill: #bfd2fa;
      }

      .cls-10 {
        fill: #788cfa;
      }

      .cls-11 {
        clip-path: url(#clippath-1);
      }

      .cls-12 {
        clip-path: url(#clippath-3);
      }

      .cls-13 {
        clip-path: url(#clippath-2);
      }

      .cls-14 {
        fill: #fff;
      }

      .cls-15 {
        fill: #382b72;
      }

      .cls-16 {
        fill: #8c9efe;
      }

      .cls-17 {
        fill: #82aaf2;
      }

      .cls-18 {
        fill: #646edc;
      }

      .cls-19 {
        fill: #bdcff9;
      }

      .cls-20 {
        fill: #afc4f7;
      }

      .cls-21 {
        fill: #96b4ff;
      }

      .cls-22 {
        fill: #dae4fb;
      }

      .cls-23 {
        fill: #ccdbfb;
      }

      .cls-24 {
        fill: #faa590;
      }

      .cls-25 {
        fill: #ecf1fd;
      }
    </style>
    <clipPath id="clippath-1">
      <rect class="cls-2" x="136" y="144" width="2562" height="1670"/>
    </clipPath>
    <clipPath id="clippath-2">
      <path class="cls-2" d="M1913.6,1813.15c-586.65,0-1430.2-14.73-1430.2-14.73-211.64-20.45-378.91-149.05-341.37-391.96,37.55-242.9,228.71-307.2,279.92-442.95,51.2-135.74-58.03-328.64,61.45-489.39,119.48-160.74,395.98-71.44,563.25-128.59,158.54-54.18,264.96-201.42,444.22-201.42,9.87,0,19.94.44,30.27,1.37,198,17.86,310.65,285.78,450.61,303.64,10.82,1.38,21.73,1.99,32.71,1.99,42.85,0,86.94-9.31,132.28-18.62,45.33-9.31,91.92-18.62,139.73-18.62,50.65,0,102.68,10.44,156.12,42.39,167.27,100.02,64.86,538.89,119.47,658.82,54.62,119.92,180.93,255.32,136.55,421.6-44.38,166.28-143.37,228.62-225.3,261.74-27.31,11.05-256.43,14.73-549.72,14.73M1917.77,1312.67l-36.84-162.1-58.09-190-138.07,24.88-189.87-39.96,67.1,205.08-19.6,162.1h375.37Z"/>
    </clipPath>
    <clipPath id="clippath-3">
      <path class="cls-2" d="M1913.6,1813.15c-586.65,0-1430.2-14.73-1430.2-14.73-211.64-20.45-378.91-149.05-341.37-391.96,37.55-242.9,228.71-307.2,279.92-442.95,51.2-135.74-58.03-328.64,61.45-489.39,119.48-160.74,395.98-71.44,563.25-128.59,158.54-54.18,264.96-201.42,444.22-201.42,9.87,0,19.94.44,30.27,1.37,198,17.86,310.65,285.78,450.61,303.64,10.82,1.38,21.73,1.99,32.71,1.99,42.85,0,86.94-9.31,132.28-18.62,45.33-9.31,91.92-18.62,139.73-18.62,50.65,0,102.68,10.44,156.12,42.39,167.27,100.02,64.86,538.89,119.47,658.82,54.62,119.92,180.93,255.32,136.55,421.6-44.38,166.28-143.37,228.62-225.3,261.74-27.31,11.05-256.43,14.73-549.72,14.73M1917.77,1312.67l-36.84-162.1-58.09-190-138.07,24.88-189.87-39.96,67.1,205.08-19.6,162.1h375.37Z"/>
    </clipPath>
    <linearGradient id="linear-gradient" x1="137.14" y1="1848.08" x2="138.13" y2="1848.08" gradientTransform="translate(3100095.83 231753.04) rotate(-90) scale(1676.7 -1676.7)" gradientUnits="userSpaceOnUse">
      <stop offset="0" stop-color="#eee3f2"/>
      <stop offset=".03" stop-color="#eee3f2"/>
      <stop offset=".06" stop-color="#ede3f2"/>
      <stop offset=".09" stop-color="#ece3f3"/>
      <stop offset=".12" stop-color="#ebe3f3"/>
      <stop offset=".16" stop-color="#eae3f3"/>
      <stop offset=".19" stop-color="#eae3f4"/>
      <stop offset=".22" stop-color="#e9e3f4"/>
      <stop offset=".25" stop-color="#e8e3f4"/>
      <stop offset=".28" stop-color="#e7e4f5"/>
      <stop offset=".31" stop-color="#e6e4f5"/>
      <stop offset=".34" stop-color="#e5e4f5"/>
      <stop offset=".38" stop-color="#e5e4f5"/>
      <stop offset=".41" stop-color="#e4e4f6"/>
      <stop offset=".44" stop-color="#e3e4f6"/>
      <stop offset=".47" stop-color="#e2e4f6"/>
      <stop offset=".5" stop-color="#e1e4f7"/>
      <stop offset=".53" stop-color="#e0e4f7"/>
      <stop offset=".56" stop-color="#e0e4f7"/>
      <stop offset=".59" stop-color="#dfe4f8"/>
      <stop offset=".62" stop-color="#dee4f8"/>
      <stop offset=".66" stop-color="#dde4f8"/>
      <stop offset=".69" stop-color="#dce4f9"/>
      <stop offset=".72" stop-color="#dbe4f9"/>
      <stop offset=".75" stop-color="#dbe4f9"/>
      <stop offset=".78" stop-color="#dae5fa"/>
      <stop offset=".81" stop-color="#d9e5fa"/>
      <stop offset=".84" stop-color="#d8e5fa"/>
      <stop offset=".88" stop-color="#d7e5fa"/>
      <stop offset=".91" stop-color="#d6e5fb"/>
      <stop offset=".94" stop-color="#d5e5fb"/>
      <stop offset=".97" stop-color="#d5e5fb"/>
      <stop offset="1" stop-color="#d4e5fc"/>
    </linearGradient>
  </defs>
  <g class="cls-11">
    <g class="cls-13">
      <g class="cls-12">
        <path class="cls-8" d="M104.49,1813.15h2628.51V144.11H104.49v1669.04Z"/>
      </g>
    </g>
  </g>
  <path class="cls-18" d="M1983.25,1589.81c3.54,7.76,6.07,16.9,6,26.02-.11,17.36-9.47,30.37-19.62,35.68-8.36,4.38-17.36,4.95-26.17,6.11-2.23.29-4.47.6-6.69,1.04-.47.09-.93.23-1.41.38-.51.15-1.02.32-1.53.42-.79.18-1.57.25-2.35.06-2.68-.67-3.95-4.36-4.48-8.03-.46-3.18-.5-6.41-1.06-9.58-.63-3.44-1.59-6.77-2.88-9.82-3.62-8.59-9.4-14.59-14.73-20.93-5.35-6.35-10.65-13.83-12.56-23.27-2.39-11.89,1.29-24.04,6.89-32.1,2.81-4.03,6.16-7.41,8.1-12.48,3.24-8.43,1.84-19.97-1.48-29.68-3.31-9.73-8.29-18.27-12.57-27.32-2.7-5.73-5.27-12.61-4.11-18.43.86-4.27,3.53-6.83,5.98-9.33,4.69-4.81,9.29-11.37,8.77-20.56-.41-7.26-3.91-14.19-6.78-20.96-2.86-6.8-5.29-15.05-3.28-20.86,1.62-4.65,5.61-6.18,9.31-7.4,6.66-2.18,14.32-4.14,21.27,2.14,3.43,3.13,6.15,7.89,8.55,12.7,3.29,6.54,6.31,14,6.3,21.15,0,3.37-.69,6.41-1.04,9.61-.92,8.18.28,17.53,3.31,25.87,7.76,21.53,25.97,32.82,33.33,55.02,4.03,12.21,3.79,26.59-.51,36.6-1.07,2.51-2.38,4.8-3.02,7.7-1.1,5.02.02,11.04,1.88,16.09,1.85,5.04,4.41,9.4,6.58,14.16"/>
  <path class="cls-4" d="M1920.48,1419.4c13.96,79.9,18.82,160.29,14.88,239.64-.51.15-1.02.32-1.53.42,3.97-79.47-.88-159.98-14.87-240,.5-.02,1.01-.04,1.52-.06"/>
  <path class="cls-10" d="M1231.96,1449.46l.1.67c3.17,21.33,4.16,41.87,3.25,60.6-.04.85-.08,1.69-.13,2.52-2.85,48.91-18.8,84.88-42.93,89.3-.3.04-.59.1-.87.14l-.87.12c-23.7,2.8-48.81-25.23-65.89-69.01-.3-.76-.6-1.54-.89-2.31-6.65-17.53-12.02-37.5-15.53-58.96-.12-.69-.23-1.38-.33-2.07-.12-.77-.24-1.52-.35-2.29-2.71-17.96-3.87-35.37-3.65-51.62,0-.64.02-1.28.03-1.91.31-15.74,1.93-30.34,4.7-43.27.12-.58.25-1.14.39-1.72,6.86-30.53,20.3-51.28,38.24-54.57.3-.04.59-.1.87-.14.29-.04.58-.08.87-.12,17.72-2.09,36.21,13.03,51.55,39.1.31.5.61,1.02.9,1.54,6.42,11.15,12.26,24.23,17.24,38.75.21.61.42,1.22.62,1.84,5.3,15.85,9.59,33.37,12.46,51.97h0c.08.48.15.95.22,1.44"/>
  <path class="cls-3" d="M1148.97,1314.82l43.28,287.73c-.3.04-.59.1-.87.14l-.87.12-43.28-287.73c.3-.04.59-.1.87-.14.29-.04.58-.08.87-.12"/>
  <path class="cls-3" d="M1201.42,1355.46l-41.32,33.33-.78.62-.96-.34-49.76-17.7c.12-.58.25-1.14.39-1.72l49.08,17.45.92.33.8-.66,40.73-32.85c.31.5.61,1.02.9,1.54"/>
  <path class="cls-3" d="M1219.28,1396.05l-50.92,47.69-.76.72-.97-.42-62.76-27.49c0-.64.02-1.28.03-1.91l62.42,27.34.92.4.8-.75,50.62-47.42c.21.61.42,1.22.62,1.84"/>
  <path class="cls-3" d="M1231.96,1449.46l.1.67-54.99,51.51-.76.72-.97-.43-67.14-29.4c-.12-.69-.23-1.38-.33-2.07l67.16,29.42.92.4.8-.75,54.99-51.5c.08.47.15.94.22,1.43"/>
  <path class="cls-3" d="M1235.31,1510.73c-.04.85-.08,1.69-.13,2.52l-49.41,46.28-.76.72-.97-.43-59.42-26.02c-.3-.76-.6-1.54-.89-2.31l60,26.28.93.41.8-.76,49.85-46.69"/>
  <path class="cls-16" d="M1320.39,1530.3l-.19.56c-6.08,17.98-13.55,34.47-21.79,48.76-.36.65-.73,1.29-1.11,1.93-21.86,37.15-48.8,58.91-69.47,52.69-.25-.09-.49-.16-.74-.24-.24-.08-.48-.17-.73-.26-19.68-7.32-28.09-39.35-23.89-80.49.07-.72.15-1.44.23-2.17,1.83-16.4,5.65-34.19,11.51-52.4.19-.59.38-1.17.58-1.76.21-.65.42-1.28.64-1.93,5.09-15.15,11.17-29.25,17.86-41.89.27-.5.53-.99.8-1.48,6.56-12.2,13.69-22.99,21.05-32,.32-.4.65-.8.99-1.19,17.64-21.16,36.49-32.01,51.86-27.38.25.08.5.16.74.24.24.08.48.17.73.25,14.71,5.48,23.12,24.75,24.67,51.31.04.52.06,1.05.08,1.57.55,11.32-.12,23.9-2.05,37.28-.09.56-.17,1.12-.26,1.68-2.21,14.54-5.88,29.98-11.1,45.7h-.01c-.12.41-.26.81-.4,1.22"/>
  <path class="cls-3" d="M1309.46,1391.54l-81.63,242.7c-.25-.09-.49-.16-.74-.24-.24-.08-.48-.17-.73-.26l81.63-242.69c.25.08.5.16.74.24.24.08.48.17.73.25"/>
  <path class="cls-3" d="M1334.21,1444.42l-45.74,9.52-.86.17-.61-.65-31.86-33.84c.32-.4.65-.8.99-1.19l31.43,33.37.59.62.89-.18,45.09-9.39c.04.52.06,1.05.08,1.57"/>
  <path class="cls-3" d="M1331.9,1483.38l-59.02,16.91-.88.25-.59-.72-38.12-46.72c.27-.5.53-.99.8-1.48l37.9,46.47.56.68.93-.26,58.68-16.81c-.09.56-.17,1.12-.26,1.68"/>
  <path class="cls-3" d="M1320.39,1530.3l-.19.56-63.74,18.26-.89.26-.59-.72-40.77-49.98c.19-.59.38-1.17.58-1.76l40.78,50,.56.69.93-.27,63.73-18.26c-.12.41-.26.81-.4,1.22"/>
  <path class="cls-3" d="M1298.41,1579.62c-.36.65-.73,1.29-1.11,1.93l-57.27,16.4-.88.26-.59-.73-36.09-44.23c.07-.72.15-1.44.23-2.17l36.44,44.67.56.69.93-.27,57.78-16.55"/>
  <path class="cls-5" d="M2063.73,1622.12c1.63,14.12.95,29.92-3.86,44.36-9.11,27.46-30.65,43.28-49.49,46.47-15.5,2.66-30.08-1.07-44.64-3.77-3.69-.68-7.4-1.34-11.14-1.78-.8-.1-1.61-.12-2.43-.13-.89-.02-1.79-.03-2.66-.12-1.33-.13-2.61-.42-3.74-1.12-3.91-2.44-4.03-8.95-2.99-15.04.91-5.28,2.51-10.42,3.25-15.74.78-5.77.98-11.55.5-17.05-1.33-15.49-7.41-27.99-12.6-40.78-5.21-12.81-9.78-27.42-7.93-43.37,2.32-20.09,14.4-37.45,27.44-47.36,6.52-4.94,13.58-8.59,19.27-15.63,9.47-11.7,13.19-30.72,12.93-47.83-.26-17.13-3.76-33.23-5.89-49.79-1.34-10.48-1.86-22.72,2.97-31.34,3.55-6.34,9.11-9.02,14.28-11.73,9.91-5.21,20.58-13.26,24.49-28.1,3.08-11.71,1.09-24.51.04-36.73-1.05-12.25-.66-26.59,5.53-34.76,4.96-6.54,12.07-6.93,18.57-6.95,11.68-.02,24.85.8,32.62,14.34,3.85,6.73,5.71,15.68,7.04,24.54,1.84,12.07,2.8,25.45-.9,36.79-1.75,5.33-4.38,9.8-6.59,14.69-5.67,12.51-8.58,27.96-8.06,42.74,1.23,38.15,24.3,65.41,24.55,104.42.1,21.43-7.67,44.11-19.64,57.78-3,3.43-6.25,6.38-8.76,10.66-4.32,7.4-5.65,17.52-5.3,26.47.34,8.95,2.16,17.19,3.14,25.86"/>
  <path class="cls-4" d="M2051.89,1319.56c-18.98,133.9-52.65,263.89-99.72,387.71-.89-.02-1.79-.03-2.66-.12,47.21-123.99,80.94-254.18,99.92-388.28.82.23,1.64.46,2.46.69"/>
  <path class="cls-21" d="M421.63,1849.54c7.74-139.14,94.58-193.3,208.07-274.12,113.49-80.83,149.61-194.32,271.7-194.32,130.68,0,184.48,144.35,308.29,189.05,123.81,44.71,166.31,77.46,194.69,166.05,36.32,113.34-982.74,113.34-982.74,113.34"/>
  <path class="cls-21" d="M1445.37,1783.48c40.18-141.12,313.81-80.43,395.85-102.52,111.06-29.9,156.63-240.76,273.39-242.83,116.76-2.08,153.78,205.81,210.74,274.16,56.95,68.35,93.98,167.27,22.78,171.92-71.2,4.64-902.76-100.73-902.76-100.73"/>
  <path class="cls-10" d="M408.04,1784.7c42.21,27.58,60.77,75.49,63.79,83.94.3.85.45,1.3.45,1.3,0,0-.47.04-1.36.11-8.95.63-60.28,2.88-102.5-24.7-42.22-27.58-60.78-75.49-63.8-83.94-.3-.85-.45-1.3-.45-1.3,0,0,.47-.04,1.36-.11,8.95-.63,60.28-2.88,102.5,24.7"/>
  <path class="cls-7" d="M305.54,1760l166.3,108.64c.3.85.45,1.3.45,1.3,0,0-.47.04-1.36.11l-166.3-108.64c-.3-.85-.45-1.3-.45-1.3,0,0,.47-.04,1.36-.11"/>
  <path class="cls-10" d="M595.55,1747.34c-13.36,59.06-59.52,100.01-67.77,106.95-.82.69-1.27,1.05-1.27,1.05,0,0-.25-.51-.7-1.49-4.46-9.82-28.49-66.64-15.12-125.71s59.52-100.01,67.77-106.95c.82-.69,1.27-1.05,1.27-1.05,0,0,.25.51.7,1.49,4.46,9.82,28.49,66.64,15.12,125.71"/>
  <path class="cls-7" d="M580.43,1621.63l-52.64,232.66c-.82.69-1.27,1.05-1.27,1.05,0,0-.25-.51-.7-1.49l52.64-232.66c.82-.69,1.27-1.05,1.27-1.05,0,0,.25.51.7,1.49"/>
  <path class="cls-10" d="M486.05,1724.68c21.64,63.94-9.37,132.13-13.18,143.53-.38,1.13-.6,1.73-.6,1.73,0,0-.53-.35-1.53-1.02-9.95-6.74-65.85-46.8-87.49-110.74-21.64-63.95-1.57-129.73,2.24-141.13.38-1.14.6-1.73.6-1.73,0,0,.53.34,1.53,1.01,9.95,6.74,76.78,44.4,98.43,108.35"/>
  <path class="cls-7" d="M387.63,1616.33l85.25,251.88c-.38,1.13-.6,1.73-.6,1.73,0,0-.53-.35-1.53-1.02l-85.25-251.87c.38-1.14.6-1.73.6-1.73,0,0,.53.34,1.53,1.01"/>
  <path class="cls-18" d="M2221.08,1702.6c22.39,70.92-1.21,142.93-5.66,155.39-.46,1.25-.7,1.9-.7,1.9,0,0-.58-.39-1.66-1.15-10.81-7.65-71.48-53.05-93.86-123.97-22.4-70.93,1.2-142.93,5.66-155.4.45-1.24.7-1.89.7-1.89,0,0,.57.38,1.66,1.15,10.8,7.64,71.47,53.04,93.86,123.97"/>
  <path class="cls-7" d="M2127.22,1578.63l88.2,279.36c-.46,1.25-.7,1.9-.7,1.9,0,0-.58-.39-1.66-1.15l-88.2-279.37c.45-1.24.7-1.89.7-1.89,0,0,.57.38,1.66,1.15"/>
  <path class="cls-10" d="M2469.94,1835.23c-70.44,54.89-161.37,58.48-177.26,58.69-1.59,0-2.43,0-2.43,0,0,0,.2-.82.6-2.35,4.09-15.37,29.78-102.66,100.23-157.56,70.45-54.9,161.38-58.49,177.27-58.7,1.59-.01,2.43,0,2.43,0,0,0-.2.81-.6,2.35-4.09,15.36-29.78,102.65-100.24,157.56"/>
  <path class="cls-7" d="M2570.18,1677.67l-277.5,216.25c-1.59,0-2.43,0-2.43,0,0,0,.2-.82.6-2.35l277.5-216.26c1.59-.01,2.43,0,2.43,0,0,0-.2.81-.6,2.35"/>
  <path class="cls-10" d="M2366.19,1707.04c-35.07,93.17-134.17,141.99-149.17,151.43-1.51.94-2.3,1.42-2.3,1.42,0,0-.29-.89-.8-2.58-5.05-16.99-31.38-114.95,3.68-208.12,35.08-93.19,119.46-149.48,134.46-158.93,1.5-.94,2.3-1.41,2.3-1.41,0,0,.28.88.8,2.58,5.05,16.99,46.1,122.42,11.03,215.61"/>
  <path class="cls-7" d="M2355.16,1491.43l-138.14,367.04c-1.51.94-2.3,1.42-2.3,1.42,0,0-.29-.89-.8-2.58l138.14-367.05c1.5-.94,2.3-1.41,2.3-1.41,0,0,.28.88.8,2.58"/>
  <path class="cls-9" d="M2530.48,1866.25l-31.9-7.93c-721.21-179.36-1476.04-173.57-2194.41,16.82,204.37,45.91,618.01,77.3,1095.04,77.3,507.2,0,942.74-35.49,1131.27-86.19"/>
  <path class="cls-14" d="M1915.8,661.18c-3.22-1.84-7.06-2.27-10.77-2.18-9.4.24-18.42,3.54-27.24,6.8,8.02-8.5,8.09-21.54,7.67-33.22-.05-1.6-.12-3.23-.67-4.74-.72-1.97-2.23-3.57-3.94-4.78-8.66-6.12-21.43-2.24-28.5,5.67-7.07,7.9-9.84,18.64-12.35,28.94.44-7.61.58-15.41-1.79-22.66-2.37-7.24-7.7-13.92-15.03-16.02-6.99-2-15.09.77-19.39,6.64-3.04,4.15-4.16,9.45-4.18,14.6,0,2.78.31,5.56.91,8.28,1.06,4.79,3.03,9.37,5.74,13.46,1.36,2.05,2.9,3.97,4.61,5.73,1.2,1.24,3.96,2.78,4.47,4.44-2.55-.78-5.08-3.25-7.14-4.9-2.34-1.87-4.64-3.8-7.2-5.37-5.29-3.25-11.6-4.84-17.8-4.48-5.9.34-12.59,3.45-13.46,9.29-.64,4.26,2.22,8.44,5.92,10.65,3.7,2.21,8.09,2.86,12.37,3.42,4.76.62,9.53,1.19,14.31,1.7l-52.39,2.78h95.49-.06c18.69.37,37.38-.4,55.94-2.62,5.75-.69,11.85-1.67,16.18-5.52,1.99-1.77,3.53-4.2,3.71-6.86.26-3.7-2.2-7.21-5.41-9.05"/>
  <path class="cls-14" d="M2328.21,809.39c-5-17.31-37.14-23.96-43.17-8.94,14.48-36.08-25.14-50.04-45.15-49.22-24.75,1.01-41.43,23.62-46.16,39.93,7.47-25.74,6.4-63.42-20.47-80.11-53.09-19.26-87.79,35.02-57.12,81.36-14.72-17.54-59.75-46.84-75.26-19.07-7.93,20.54-3.47,47.22,16.22,59.06l-66.33,7.01c35.02-11.17,354.97,29.28,337.44-30.02"/>
  <path class="cls-24" d="M2007.35,1463.64c1.93,0,1.93-3,0-3s-1.93,3,0,3"/>
  <path class="cls-23" d="M1575.84,1149.21l-.37,2.99-17.76,146.9h343.06l-32.97-145.04-54.42-177.99-126.2,22.74-2.61.47-2.59-.55-166.87-35.12,59.79,182.74.94,2.86"/>
  <path class="cls-14" d="M1681.98,998.73l2.59.55,2.61-.47,126.2-22.74,54.42,177.99,32.97,145.04h-343.06l17.76-146.9.37-2.99-.94-2.86-59.79-182.74,166.87,35.12M1917.77,1312.67l-36.84-162.1-58.09-190-138.07,24.88-189.87-39.96,67.1,205.08-19.6,162.1h375.37"/>
  <path class="cls-19" d="M1716.41,1165.7l-140.57-16.49-.94-2.86-59.79-182.74,166.87,35.12,2.59.55,2.61-.47,29.23,166.89"/>
  <path class="cls-25" d="M1542.4,1312.67l19.6-162.1-67.1-205.08,189.87,39.96,2.41,13.36-2.61.47-2.59-.55-166.87-35.12,59.79,182.74.94,2.86-13.84,1.36-19.6,162.1"/>
  <path class="cls-19" d="M1900.77,1299.1h-160.99l-23.37-133.4,151.39-11.64,32.97,145.04"/>
  <path class="cls-25" d="M1917.77,1312.67h-175.61l-2.38-13.57h160.99l-32.97-145.04,13.13-3.49,36.84,162.1"/>
  <path class="cls-20" d="M1739.78,1299.1h-182.07l17.76-146.9.37-2.99,140.57,16.49,23.37,133.4"/>
  <path class="cls-22" d="M1742.16,1312.67h-199.76l19.6-162.1,13.84-1.36-.37,2.99-17.76,146.9h182.07l2.38,13.57"/>
  <path class="cls-24" d="M1712.87,1319.51c-20.52,28.41,13.83,479.89,13.83,479.89h20.27s19.46-145.11,14.41-176.86c-5.06-31.75,16.29-232.78,16.29-232.78l7.66-128.47-72.46,58.22"/>
  <path class="cls-24" d="M1788.66,1346.07c-18.39,29.83,53.68,453.33,53.68,453.33h19.71s8.31-146.95.95-178.25c-7.36-31.3-5.34-245.92-5.34-245.92l-22.77-28.62-46.23-.54"/>
  <path class="cls-24" d="M1742.14,979.41c-6.45,32.27-7.52,83.88,8.61,85.5,16.13,1.61,33.33,4.3,46.24-18.82,12.9-23.12,29.03-103.78-10.76-89.26-39.79,14.52-44.09,22.58-44.09,22.58"/>
  <path class="cls-24" d="M1768.96,1053.72v30.82h31.85l-5.86-40.1-25.99,9.28"/>
  <path class="cls-6" d="M1840.85,998.94v.02c.04,7.31-1.06,16.16-4.98,22.34-13.44,21.21-40.44,35.74-40.44,35.74-1.59-.61-3.03-1.42-4.33-2.43-7.69-6-25.25-15.03-19.5-31.38,2.67-7.59.57-18.27-5.67-12.04-5.3,5.29-28.01-8.81-30.89-11.77-8.44-8.58-14.29-21.77-2.88-35.98,15.32-19.08,50.3-23.9,68.95-16.11,3.17,1.33,6.33,2.88,9.4,4.69.78.45,1.55.92,2.31,1.4.61.39,1.22.79,1.82,1.2.57.38,1.14.77,1.69,1.17.38.27.76.56,1.13.86h0c11.82,9.53,22.78,33.72,22.82,34.01.03.17.04.34.06.52.18,1.38.32,2.97.41,4.7.05.98.08,2,.09,3.06"/>
  <path class="cls-17" d="M1819.73,1261.29h-94.68s.76-110.87.76-136.42c0-8.33-5.72-22.96,11.58-30.55,5.03-2.2,12.22-4.48,18.47-6.28,3.54-1.02,6.78-1.88,9.15-2.5,2.43-.63,3.94-1,3.94-1h31.85s40.15,13.43,44.7,27.07c4.54,13.64-25.77,149.68-25.77,149.68"/>
  <path class="cls-6" d="M1840.86,998.94c-.19.06-2.98.48-4.19.48h-.01c-9.01-.07-18.16-6.97-22.6-18.09-2.92-7.3-3.27-15-1.45-21.53.51-1.83,1.19-3.58,2.04-5.19l.1-.18c2.05-3.86,5.04-6.95,8.83-8.79,2-.98,3.92-1.73,5.77-2.19,8.37-2.12,22.59,5.21,22.02,28.9,13.94,19.16-10.23,26.53-10.51,26.59"/>
  <path class="cls-15" d="M1725.05,1261.29c-25.06,42.62-29.17,142.27-30.5,164.09-.03.63,82.87,4.29,82.87,4.29,1.79-11.84,5.17-47.46,5.17-47.46,0,0,1.37,28.48,3.53,46.96.17,1.43,77.44,1.67,78.14.38,2.57-4.78-8.88-94.54-21.41-125.22-13.64-33.43-23.12-43.04-23.12-43.04h-94.68"/>
  <path class="cls-15" d="M1714.51,1783.11h43.2l-4.33,25.91.23,24.11h-81.16s-6.42-2,7.02-11.42c13.44-9.43,42.81-13.59,42.81-13.59l-7.77-25.01"/>
  <path class="cls-15" d="M1828.92,1783.11h43.21l-4.34,25.91,1.02,24.11h-81.95s-6.42-2,7.02-11.42c13.44-9.43,42.81-13.59,42.81-13.59l-7.77-25.01"/>
  <path class="cls-24" d="M1591.58,1160.71c-.5-4.26-1.49-8.45-3.26-12.35-1.46-3.22-3.18-6.47-4.54-7.49-2.98-2.24-8.02-5.41-11.19-8.76-3.16-3.36-4.47-4.11-4.28-1.31.18,2.8,6.71,11.56,5.4,11.56s-25.72-4.48-26.28-.56c-.56,3.91,7.46,6.52,10.07,12.12,2.61,5.59,4.5,8.64,14.75,12.55.7.27,6.73,3.47,8.26,4.46l11.11-10.07s-.03-.06-.04-.15"/>
  <path class="cls-24" d="M1737.39,1094.32c-45.74,11.23-45.36,112.03-64.69,113.54-18.88,1.48-77.72-45.23-81.08-47l-11.11,10.07c13.01,16.72,65.51,76.36,98,76.6,34.86.25,49.39-81.98,56.46-98.91,7.08-16.93,2.42-54.3,2.42-54.3"/>
  <path class="cls-1" d="M1786.41,1096.41s-36.74,64.48-36.74,135.72,148.18,70.2,148.18,0-28.17-135.72-28.17-135.72h-83.27"/>
  <path class="cls-5" d="M1753.48,1190.79s-32.59,68.49,15.17,68.49,26.33-68.49,26.33-68.49h-41.5"/>
  <path class="cls-5" d="M1824.1,1190.79s-29.39,68.49,23,68.49,61.97-2.38,61.97-33.56-13.41-34.93-13.41-34.93h-71.56"/>
  <path class="cls-5" d="M1878.16,1118.14h-96.69c-12,0-21.72-9.73-21.72-21.73s9.72-21.73,21.72-21.73h96.69c12,0,21.73,9.73,21.73,21.73s-9.73,21.73-21.73,21.73"/>
  <path class="cls-1" d="M1793.56,1096.41c0,8.02-5.89,14.53-13.16,14.53s-13.15-6.51-13.15-14.53,5.89-14.53,13.15-14.53,13.16,6.51,13.16,14.53"/>
  <path class="cls-1" d="M1822.23,1096.41c0,12-9.73,21.72-21.72,21.72-1.31,0-2.6-.11-3.85-.34,10.16-1.81,17.87-10.71,17.87-21.38s-7.71-19.57-17.87-21.37c1.25-.23,2.54-.35,3.85-.35,11.99,0,21.72,9.72,21.72,21.72"/>
  <path class="cls-1" d="M1874.14,1096.41c0,12-9.73,21.72-21.72,21.72-1.31,0-2.6-.11-3.85-.34,10.16-1.81,17.87-10.71,17.87-21.38s-7.71-19.57-17.87-21.37c1.25-.23,2.54-.35,3.85-.35,11.99,0,21.72,9.72,21.72,21.72"/>
  <path class="cls-15" d="M1818.02,985.17c-.14,0-.29-.03-.43-.1-6.73-3.24-10.6-7.41-11.49-12.39-1.39-7.76,4.98-14.47,5.25-14.75.38-.4,1.02-.41,1.41-.02.4.38.41,1.01.03,1.41-.06.06-5.93,6.27-4.72,13.02.78,4.3,4.27,7.98,10.39,10.93.5.24.7.84.46,1.34-.17.35-.53.56-.9.56"/>
  <path class="cls-15" d="M1833.07,1003.64c-5.36,0-9.47-1.5-12.28-4.47-5.42-5.75-3.82-14.8-3.75-15.18.1-.54.62-.9,1.16-.8.55.1.91.62.81,1.16-.02.09-1.48,8.45,3.24,13.46,3.04,3.21,8,4.41,14.76,3.57.55-.07,1.05.32,1.11.87.07.55-.32,1.05-.87,1.12-1.46.18-2.86.27-4.18.27"/>
  <path class="cls-15" d="M896.46,1041.5c1.19.1,2.34.17,3.56.17,3.59,0,5.75-1.85,5.75-4.92,0-2.89-1.75-4.74-5.62-4.74-.98,0-2.55.03-3.7.07v9.42ZM899.88,1029.22c6.98,0,9.04,3.76,9.04,7.57s-2.83,7.67-8.79,7.67c-.98,0-2.44-.03-3.66-.14v8.16c0,.81-.66,1.47-1.46,1.47s-1.5-.66-1.5-1.47v-21.73c0-.8.66-1.46,1.46-1.46,1.61-.04,3.8-.07,4.92-.07"/>
  <path class="cls-15" d="M920.32,1033.09l-4.39,10.43h8.79l-4.39-10.43ZM925.86,1046.31h-11.13l-2.79,6.66c-.32.77-.77.98-1.33.98-.91,0-1.39-.66-1.39-1.36,0-.21.07-.42.14-.63l9.35-21.66c.31-.7.87-1.19,1.71-1.19s1.39.53,1.67,1.19l9.31,21.56c.07.21.11.38.11.59,0,.77-.52,1.5-1.43,1.5-.63,0-1.15-.38-1.39-.98l-2.82-6.66"/>
  <path class="cls-15" d="M936.36,1041.5c0,5.93,3.77,9.76,9.31,9.76,2.3,0,4.99-.9,6.28-2.16v-5.02h-5.23c-.73,0-1.36-.63-1.36-1.4s.62-1.39,1.36-1.39h6.56c.8,0,1.46.66,1.46,1.46v6.98c0,.77-.42,1.32-.84,1.64-2.23,1.71-5.61,2.68-8.3,2.68-7.6,0-12.38-4.95-12.38-12.55,0-7.01,4.71-12.56,12-12.56,2.76,0,4.99.66,6.7,1.67.49.28.73.74.73,1.15,0,.25-.07.49-.21.74-.24.42-.7.62-1.15.62-.28,0-.59-.07-.91-.24-1.33-.7-2.96-1.15-4.82-1.15-5.44,0-9.21,3.87-9.21,9.77"/>
  <path class="cls-15" d="M973.27,1050.91c.73,0,1.36.63,1.36,1.4s-.63,1.4-1.36,1.4h-11.3c-.8,0-1.46-.67-1.46-1.47v-21.49c0-.8.66-1.46,1.46-1.46h10.95c.73,0,1.36.63,1.36,1.39s-.63,1.4-1.36,1.4h-9.45v7.88h8.41c.73,0,1.36.63,1.36,1.4s-.63,1.39-1.36,1.39h-8.41v8.16h9.8"/>
  <path class="cls-15" d="M1006.02,1030.47c0-.73.63-1.36,1.4-1.36s1.39.63,1.39,1.36v21.98c0,.87-.48,1.5-1.25,1.5s-1.19-.35-1.78-1.08l-14.58-18.38v18.1c0,.73-.63,1.36-1.39,1.36s-1.4-.63-1.4-1.36v-21.84c0-.83.42-1.64,1.36-1.64.73,0,1.18.35,1.88,1.26l14.37,18.17v-18.07"/>
  <path class="cls-15" d="M1017.36,1041.5c0,5.54,4.08,9.76,9.31,9.76,5.58,0,9.32-4.25,9.32-9.76s-4.08-9.77-9.32-9.77-9.31,4.08-9.31,9.77ZM1014.22,1041.5c0-7.08,5.2-12.56,12.45-12.56s12.46,5.13,12.46,12.56-5.38,12.55-12.46,12.55-12.45-5.12-12.45-12.55"/>
  <path class="cls-15" d="M1051.58,1052.48c0,.81-.66,1.47-1.46,1.47s-1.5-.66-1.5-1.47v-20.4h-7.19c-.73,0-1.36-.63-1.36-1.4s.63-1.39,1.36-1.39h17.34c.73,0,1.36.63,1.36,1.39s-.63,1.4-1.36,1.4h-7.19v20.4"/>
  <path class="cls-15" d="M1074.95,1043.52v8.96c0,.81-.66,1.47-1.46,1.47s-1.5-.66-1.5-1.47v-21.73c0-.8.66-1.46,1.46-1.46h10.95c.74,0,1.37.63,1.37,1.39s-.63,1.4-1.37,1.4h-9.45v8.65h8.41c.73,0,1.36.63,1.36,1.39s-.63,1.4-1.36,1.4h-8.41"/>
  <path class="cls-15" d="M1092.25,1041.5c0,5.54,4.08,9.76,9.32,9.76,5.58,0,9.31-4.25,9.31-9.76s-4.08-9.77-9.31-9.77-9.32,4.08-9.32,9.77ZM1089.11,1041.5c0-7.08,5.2-12.56,12.46-12.56s12.45,5.13,12.45,12.56-5.37,12.55-12.45,12.55-12.46-5.12-12.46-12.55"/>
  <path class="cls-15" d="M1129.19,1051.23c4.02,0,6.49-2.76,6.49-8.3v-12.39c0-.76.67-1.43,1.5-1.43s1.47.67,1.47,1.43v12.98c0,7.46-4.47,10.5-9.46,10.5-5.86,0-10.11-3.59-10.11-10.74v-12.74c0-.76.66-1.43,1.5-1.43s1.46.67,1.46,1.43v12.18c0,5.3,2.58,8.51,7.15,8.51"/>
  <path class="cls-15" d="M1163.24,1030.47c0-.73.63-1.36,1.39-1.36s1.4.63,1.4,1.36v21.98c0,.87-.49,1.5-1.26,1.5s-1.18-.35-1.77-1.08l-14.59-18.38v18.1c0,.73-.62,1.36-1.39,1.36s-1.4-.63-1.4-1.36v-21.84c0-.83.42-1.64,1.36-1.64.74,0,1.19.35,1.89,1.26l14.37,18.17v-18.07"/>
  <path class="cls-15" d="M1176.32,1050.91c1.61.04,3.11.07,3.52.07,6.98,0,10.75-4.11,10.75-9.8,0-5.3-3.56-9.21-10.64-9.21-1.47,0-2.41.07-3.63.11v18.83ZM1174.82,1029.29c1.71-.04,3.66-.11,5.2-.11,9.77,0,13.71,5.62,13.71,12,0,6.94-4.68,12.59-13.99,12.59-1.33,0-3.03-.03-4.92-.06-.8,0-1.46-.67-1.46-1.47v-21.49c0-.8.62-1.46,1.46-1.46"/>
  <path class="cls-10" d="M954.88,1149.21h190.44c17.54,0,31.76-12.47,31.76-27.85s-14.22-27.86-31.76-27.86h-190.44c-17.54,0-31.77,12.47-31.77,27.86s14.22,27.85,31.77,27.85"/>
  <path class="cls-14" d="M982.72,1131.06c-1.21.43-3.61,1.15-6.43,1.15-3.17,0-5.78-.81-7.83-2.77-1.8-1.74-2.92-4.54-2.92-7.8.03-6.25,4.32-10.81,11.34-10.81,2.42,0,4.32.53,5.22.96l-.66,2.21c-1.12-.5-2.52-.9-4.63-.9-5.09,0-8.42,3.16-8.42,8.42s3.2,8.45,8.08,8.45c1.77,0,2.98-.25,3.6-.56v-6.25h-4.26v-2.17h6.9v10.07"/>
  <path class="cls-14" d="M988.5,1121.64c0,4.47,2.42,8.48,6.68,8.48s6.71-3.94,6.71-8.7c0-4.16-2.18-8.51-6.68-8.51s-6.71,4.13-6.71,8.73ZM1004.75,1121.3c0,7.21-4.38,11.03-9.72,11.03s-9.41-4.29-9.41-10.63,4.13-11,9.73-11,9.41,4.38,9.41,10.6"/>
  <path class="cls-14" d="M1017.56,1113.34h-6.37v-2.3h15.51v2.3h-6.41v18.65h-2.73v-18.65"/>
  <path class="cls-14" d="M1029.84,1121.64c0,4.47,2.42,8.48,6.68,8.48s6.71-3.94,6.71-8.7c0-4.16-2.18-8.51-6.68-8.51s-6.71,4.13-6.71,8.73ZM1046.09,1121.3c0,7.21-4.38,11.03-9.73,11.03s-9.41-4.29-9.41-10.63,4.13-11,9.72-11,9.42,4.38,9.42,10.6"/>
  <path class="cls-14" d="M1058.89,1111.04v8.77h10.13v-8.77h2.74v20.95h-2.74v-9.82h-10.13v9.82h-2.7v-20.95h2.7"/>
  <path class="cls-14" d="M1078.1,1121.64c0,4.47,2.42,8.48,6.68,8.48s6.71-3.94,6.71-8.7c0-4.16-2.17-8.51-6.68-8.51s-6.71,4.13-6.71,8.73ZM1094.35,1121.3c0,7.21-4.38,11.03-9.73,11.03s-9.41-4.29-9.41-10.63,4.13-11,9.72-11,9.42,4.38,9.42,10.6"/>
  <path class="cls-14" d="M1115.51,1122.79c-.15-2.92-.34-6.43-.31-9.04h-.09c-.72,2.45-1.59,5.06-2.64,7.95l-3.7,10.16h-2.05l-3.39-9.97c-.99-2.95-1.83-5.66-2.42-8.14h-.06c-.07,2.61-.22,6.12-.41,9.26l-.56,8.98h-2.58l1.46-20.95h3.45l3.58,10.13c.87,2.58,1.58,4.88,2.11,7.06h.09c.53-2.12,1.28-4.41,2.21-7.06l3.73-10.13h3.45l1.3,20.95h-2.64l-.53-9.2"/>
  <path class="cls-14" d="M1133.69,1122.17h-8.14v7.55h9.08v2.27h-11.78v-20.95h11.31v2.27h-8.61v6.62h8.14v2.24"/>
  <path class="cls-6" d="M859.83,883.97v67.28c0,11.46-9.47,19.93-19.93,19.93s-19.93-8.47-19.93-19.93v-67.28h-140.04c-11.46,0-21.43-8.97-21.43-20.43,0-4.49,1.5-9.47,4.49-13.96l133.56-215.79c4.48-7.47,9.96-12.46,19.43-12.46,10.96,0,18.44,8.48,18.44,18.44,0,3.49-1,7.98-3.49,11.96l-119.61,192.37h108.64v-77.24c0-11.47,9.47-19.94,19.93-19.94s19.93,8.47,19.93,19.94v77.24h27.41c11.46,0,20.93,9.47,20.93,19.93s-9.47,19.94-20.93,19.94h-27.41"/>
  <path class="cls-6" d="M979.84,796.76c0,89.7,22.43,141.03,71.77,141.03s69.77-50.83,69.77-141.03-19.94-141.04-70.77-141.04-70.77,51.83-70.77,141.04ZM937.48,796.76c0-104.66,34.39-178.41,113.12-178.41s113.13,73.75,113.13,178.41-33.39,178.41-112.13,178.41-114.12-73.26-114.12-178.41"/>
  <path class="cls-6" d="M1386.41,883.97v67.28c0,11.46-9.46,19.93-19.93,19.93s-19.93-8.47-19.93-19.93v-67.28h-140.04c-11.46,0-21.43-8.97-21.43-20.43,0-4.49,1.49-9.47,4.48-13.96l133.56-215.79c4.49-7.47,9.97-12.46,19.44-12.46,10.96,0,18.44,8.48,18.44,18.44,0,3.49-1,7.98-3.49,11.96l-119.61,192.37h108.65v-77.24c0-11.47,9.46-19.94,19.93-19.94s19.93,8.47,19.93,19.94v77.24h27.41c11.47,0,20.93,9.47,20.93,19.93s-9.46,19.94-20.93,19.94h-27.41"/>
</svg>